HIERARCHY
ROOT root
{
	OFFSET 0.000000 0.000000 0.000000
	CHANNELS 6 Xposition Yposition Zposition Zrotation Yrotation Xrotation
	JOINT lhip
	{
		OFFSET 0.058581 -0.082280 -0.017664
		CHANNELS 3 Zrotation Yrotation Xrotation
		JOINT lknee
		{
			OFFSET 0.043451 -0.386469 0.008037
			CHANNELS 3 Zrotation Yrotation Xrotation
			JOINT lankle
			{
				OFFSET -0.014790 -0.426874 -0.037428
				CHANNELS 3 Zrotation Yrotation Xrotation
				JOINT ltoe
				{
					OFFSET 0.041054 -0.060286 0.122042
					CHANNELS 3 Zrotation Yrotation Xrotation
					End Site
					{
						OFFSET 0.000000 0.000000 0.000000
					}
				}
			}
		}
	}
	JOINT rhip
	{
		OFFSET -0.060310 -0.090513 -0.013543
		CHANNELS 3 Zrotation Yrotation Xrotation
		JOINT rknee
		{
			OFFSET -0.043257 -0.383688 -0.004843
			CHANNELS 3 Zrotation Yrotation Xrotation
			JOINT rankle
			{
				OFFSET 0.019056 -0.420046 -0.034562
				CHANNELS 3 Zrotation Yrotation Xrotation
				JOINT rtoe
				{
					OFFSET -0.034840 -0.062106 0.130323
					CHANNELS 3 Zrotation Yrotation Xrotation
					End Site
					{
						OFFSET 0.000000 0.000000 0.000000
					}
				}
			}
		}
	}
	JOINT lowerback
	{
		OFFSET 0.004439 0.124404 -0.038385
		CHANNELS 3 Zrotation Yrotation Xrotation
		JOINT upperback
		{
			OFFSET 0.004488 0.137956 0.026820
			CHANNELS 3 Zrotation Yrotation Xrotation
			JOINT chest
			{
				OFFSET -0.002265 0.056032 0.002855
				CHANNELS 3 Zrotation Yrotation Xrotation
				JOINT lowerneck
				{
					OFFSET -0.013390 0.211636 -0.033468
					CHANNELS 3 Zrotation Yrotation Xrotation
					JOINT upperneck
					{
						OFFSET 0.010113 0.088937 0.050410
						CHANNELS 3 Zrotation Yrotation Xrotation
						End Site
						{
							OFFSET 0.000000 0.000000 0.000000
						}
					}
				}
				JOINT lclavicle
				{
					OFFSET 0.071702 0.114000 -0.018898
					CHANNELS 3 Zrotation Yrotation Xrotation
					JOINT lshoulder
					{
						OFFSET 0.122921 0.045205 -0.019046
						CHANNELS 3 Zrotation Yrotation Xrotation
						JOINT lelbow
						{
							OFFSET 0.255332 -0.015649 -0.022946
							CHANNELS 3 Zrotation Yrotation Xrotation
							JOINT lwrist
							{
								OFFSET 0.265709 0.012698 -0.007375
								CHANNELS 3 Zrotation Yrotation Xrotation
								End Site
								{
									OFFSET 0.000000 0.000000 0.000000
								}
							}
						}
					}
				}
				JOINT rclavicle
				{
					OFFSET -0.082954 0.112472 -0.023707
					CHANNELS 3 Zrotation Yrotation Xrotation
					JOINT rshoulder
					{
						OFFSET -0.113228 0.046853 -0.008472
						CHANNELS 3 Zrotation Yrotation Xrotation
						JOINT relbow
						{
							OFFSET -0.260127 -0.014369 -0.031269
							CHANNELS 3 Zrotation Yrotation Xrotation
							JOINT rwrist
							{
								OFFSET -0.269108 0.006794 -0.006027
								CHANNELS 3 Zrotation Yrotation Xrotation
								End Site
								{
									OFFSET 0.000000 0.000000 0.000000
								}
							}
						}
					}
				}
			}
		}
	}
}
MOTION
Frames: 10
Frame Time: 0.033333
0.011823 0.492940 1.011732 178.340171 -0.833987 85.400295 4.775643 1.519090 3.893322 -4.789463 -6.198242 4.419193 -5.444203 12.342705 -6.394906 0.000000 -0.000000 0.000000 -4.854418 -4.870403 3.549661 2.285179 3.883249 7.818990 6.402319 -11.591339 -7.918344 0.000000 -0.000000 0.000000 -1.179339 0.725226 5.058959 0.306219 -4.372143 -4.042053 2.349883 1.167006 -2.446520 -0.262743 -0.891203 -4.270760 5.571462 0.749702 -3.927058 15.047342 -23.310748 -18.310667 20.953032 -30.504397 -24.742061 45.740339 -49.576576 -74.382648 14.823136 -22.678659 -75.924737 -18.205773 24.961120 -21.061328 -20.701539 32.960795 -29.232198 -37.418451 42.497184 -57.171609 1.663423 27.094723 -52.998847 
0.012265 0.492478 1.011395 178.246285 -0.794525 85.505780 4.852063 1.436140 3.792648 -4.769159 -5.645646 4.490478 -5.271102 11.831363 -6.351520 0.000000 -0.000000 0.000000 -4.850914 -4.746666 3.445813 2.229527 3.259585 7.945357 6.287339 -11.067776 -7.926328 0.000000 -0.000000 0.000000 -1.422054 0.802727 4.839423 0.467267 -4.208073 -3.426814 2.348628 1.140744 -2.674127 0.021706 -1.017571 -4.259134 5.556794 0.633339 -3.889947 11.797463 -21.104654 -15.543731 17.261842 -28.433674 -22.479878 61.578141 -52.214830 -85.285148 15.658377 -22.851867 -76.424922 -14.980012 22.787252 -18.774535 -15.663781 30.971984 -25.740608 -50.894388 46.448927 -66.640391 0.714245 27.880690 -53.830245 
0.012616 0.491765 1.010943 178.213380 -0.755096 85.687695 4.888801 1.145514 3.605035 -4.743065 -4.969832 4.544520 -5.124502 11.258082 -6.275661 0.000000 -0.000000 0.000000 -4.836788 -4.497836 3.245210 2.125559 2.364663 8.062321 6.397137 -10.193017 -7.908281 0.000000 -0.000000 0.000000 -1.698050 0.692593 4.674823 0.710975 -4.021748 -2.916986 2.388807 1.189308 -2.773714 0.284953 -0.986541 -4.360983 5.312357 0.345028 -3.811495 8.457091 -17.788107 -12.554345 12.274233 -26.472990 -20.063799 78.500898 -51.735028 -97.493469 16.195013 -23.502605 -78.861250 -11.369029 19.748443 -16.427239 -10.335772 29.122185 -22.747045 -64.933367 48.092373 -76.677010 -0.540549 28.478784 -54.895367 
0.012871 0.490991 1.010473 178.173801 -0.702161 85.880186 4.967871 1.002541 3.361932 -4.744974 -4.299806 4.670018 -4.955109 10.617100 -6.260651 0.000000 -0.000000 0.000000 -4.791397 -4.331904 2.973103 1.992477 1.512118 8.320521 6.300094 -9.429951 -8.054209 0.000000 -0.000000 0.000000 -1.916801 0.642768 4.568837 0.864354 -3.734203 -2.469493 2.381201 1.288560 -2.778487 0.584000 -1.137905 -4.686992 5.281548 0.213178 -3.522328 4.583437 -14.366379 -9.660703 6.975195 -24.406703 -17.943771 92.388809 -49.327576 -106.493214 17.016015 -24.333473 -79.821368 -7.378343 16.371934 -14.145420 -5.098066 25.938161 -19.697485 -77.783837 48.158475 -85.756078 -1.860934 29.503339 -56.415899 
0.012926 0.490012 1.010240 178.124670 -0.623302 86.144472 5.038784 0.710687 3.121659 -4.737215 -3.475415 4.743654 -4.504339 9.927427 -6.236798 0.000000 -0.000000 0.000000 -4.735580 -4.073749 2.682523 1.874765 0.499810 8.462789 6.269868 -8.572831 -8.100730 0.000000 -0.000000 0.000000 -2.007597 0.574344 4.375687 0.941374 -3.306075 -1.963439 2.234180 1.379170 -2.659137 0.966518 -1.694796 -5.216070 5.226737 0.191972 -3.181800 0.544889 -10.415707 -7.199731 0.642485 -22.883024 -16.001268 102.857537 -45.978814 -112.756701 16.694015 -25.250478 -80.630788 -3.572346 12.399060 -11.816158 1.349681 22.292976 -16.203206 -88.913117 46.115473 -93.825616 -2.472986 30.267847 -57.651131 
0.012722 0.488839 1.009796 178.059449 -0.590715 86.447234 5.004201 0.203123 2.964653 -4.733176 -2.625429 4.668019 -4.119332 9.340850 -6.243997 0.000000 -0.000000 0.000000 -4.773021 -3.854563 2.416766 1.835472 -0.374545 8.477975 6.305004 -7.720144 -8.130412 0.000000 -0.000000 0.000000 -2.060602 0.578746 4.204516 1.133962 -2.803790 -1.613864 1.971170 1.243462 -2.302715 1.309934 -2.012324 -6.090205 4.813143 -0.049120 -2.767761 -4.041077 -5.790870 -5.279503 -6.067225 -21.549823 -13.500253 108.575933 -43.966097 -115.645022 17.425667 -25.446117 -83.014614 1.125776 7.956471 -9.709278 7.010785 19.209365 -13.027197 -95.843331 44.387088 -98.598185 -3.302988 30.711619 -59.582938 
0.012695 0.487427 1.008949 177.887635 -0.627058 86.665706 4.902052 -0.218758 2.998070 -4.762092 -1.845147 4.501929 -3.570858 8.865546 -6.418348 0.000000 -0.000000 0.000000 -4.875163 -3.613415 2.210712 1.866913 -0.936447 8.514795 6.361481 -7.009543 -8.248259 0.000000 -0.000000 0.000000 -2.308058 0.587423 3.967921 1.461442 -2.381463 -1.079617 1.726557 1.119759 -1.741813 1.852302 -2.047568 -7.145052 4.110693 -0.537106 -2.943788 -8.738254 -0.797707 -4.101485 -12.720215 -19.932309 -10.846609 109.736178 -44.319208 -115.377243 16.933418 -25.397776 -83.841696 6.202025 3.383550 -7.967057 12.059938 16.744073 -10.104311 -98.788433 44.002001 -100.582565 -3.320302 30.835655 -60.462612 
0.012739 0.486542 1.008094 177.680350 -0.734517 86.683594 4.684634 -0.611910 3.259493 -4.809726 -1.484355 4.337730 -3.050804 8.889895 -6.700161 0.000000 -0.000000 0.000000 -5.062194 -3.406747 2.063349 1.953050 -1.200169 8.800865 6.352382 -6.662531 -8.559219 0.000000 -0.000000 0.000000 -2.531613 0.503378 3.833028 1.826405 -2.041263 -0.635332 1.246636 0.995966 -1.074848 2.638738 -1.531675 -7.935317 3.516044 -0.873316 -3.464016 -12.945368 4.061496 -3.089956 -19.061853 -17.834109 -7.779259 107.064171 -47.195920 -112.987069 16.285551 -24.727840 -85.534630 11.061582 -1.100201 -6.520501 17.572751 14.785531 -6.553297 -97.932129 45.211028 -99.459428 -2.684759 30.635376 -60.460841 
0.013005 0.486189 1.007386 177.452592 -0.688133 86.558950 4.778280 -0.177637 3.403827 -4.910613 -1.783337 4.459793 -2.864328 8.878678 -6.823493 0.000000 -0.000000 0.000000 -5.052708 -3.432260 2.080912 1.955294 -1.299867 9.053406 6.112372 -6.242802 -8.813494 0.000000 -0.000000 0.000000 -2.429692 0.407514 3.990878 1.737047 -1.664713 -0.803751 1.213710 1.293794 -0.474965 2.774902 -1.963084 -7.515892 3.511801 -0.922300 -3.983520 -15.815193 7.779989 -1.702775 -25.977034 -15.734670 -5.923532 99.373862 -51.743991 -104.213271 14.737185 -23.849069 -83.424851 14.791865 -4.733568 -5.369157 22.989865 11.535151 -3.936365 -93.292477 48.726500 -94.200214 -2.568271 29.960791 -61.404271 
0.012967 0.485678 1.006507 177.457579 -0.622943 86.413839 4.940999 0.245028 3.398693 -4.992323 -2.134383 4.756784 -2.867313 8.722303 -6.857765 0.000000 -0.000000 0.000000 -4.987243 -3.429890 2.170159 1.922927 -1.481357 9.275955 5.728610 -6.029210 -8.996338 0.000000 -0.000000 0.000000 -2.255782 0.304014 4.100337 1.646370 -1.494722 -0.734611 1.244624 0.846405 -0.012512 3.038543 -1.974144 -7.789841 3.155471 -0.729233 -3.602595 -18.438866 10.411509 -0.866474 -31.360010 -13.069941 -4.207005 86.309192 -54.880793 -89.704094 13.120281 -23.951459 -80.092842 17.763268 -7.113685 -4.235085 27.639966 9.600144 -1.447724 -84.471783 52.656391 -84.662939 -2.437691 28.788858 -60.801389 
